<svg width="109" height="109" viewBox="0 0 109 109" fill="none" xmlns="http://www.w3.org/2000/svg">
<path d="M54.5 0C43.7209 0 33.1839 3.19637 24.2214 9.1849C15.259 15.1734 8.27356 23.6852 4.14859 33.6437C0.023614 43.6023 -1.05567 54.5604 1.04723 65.1324C3.15012 75.7044 8.34074 85.4153 15.9627 93.0373C23.5847 100.659 33.2956 105.85 43.8676 107.953C54.4396 110.056 65.3977 108.976 75.3563 104.851C85.3148 100.726 93.8266 93.741 99.8151 84.7785C105.804 75.8161 109 65.2791 109 54.5C109 47.3429 107.59 40.256 104.851 33.6437C102.113 27.0315 98.0981 21.0235 93.0373 15.9627C87.9765 10.9019 81.9685 6.88744 75.3563 4.14856C68.744 1.40968 61.6571 0 54.5 0ZM54.5 98.1C45.8768 98.1 37.4471 95.5429 30.2772 90.752C23.1072 85.9612 17.5189 79.1518 14.2189 71.185C10.9189 63.2181 10.0555 54.4516 11.7378 45.994C13.4201 37.5365 17.5726 29.7677 23.6702 23.6701C29.7677 17.5726 37.5365 13.4201 45.9941 11.7378C54.4516 10.0554 63.2182 10.9189 71.185 14.2188C79.1519 17.5188 85.9612 23.1071 90.7521 30.2771C95.5429 37.4471 98.1 45.8767 98.1 54.5C98.1 66.0634 93.5064 77.1533 85.3299 85.3298C77.1533 93.5064 66.0635 98.1 54.5 98.1Z" fill="black"/>
<path d="M55.0746 48.4333C43.3749 48.4333 43.3749 44.9767 43.3749 42.9467C43.3749 40.9166 47.4698 37.46 55.0746 37.46C62.6793 37.46 63.2058 40.9715 63.2643 42.9467H74.964C74.8849 39.2089 73.4516 35.6077 70.8998 32.7357C68.3481 29.8637 64.83 27.892 60.9244 27.1451V21H49.2248V26.9805C37.5251 28.7911 31.6753 35.8689 31.6753 42.9467C31.6753 49.0917 34.7172 59.4067 55.0746 59.4067C66.7742 59.4067 66.7742 63.1376 66.7742 64.8933C66.7742 66.6491 63.1473 70.38 55.0746 70.38C44.3109 70.38 43.3749 65.6615 43.3749 64.8933H31.6753C31.6753 69.9411 35.5362 78.8843 49.2248 80.9144V86.84H60.9244V80.9144C72.624 79.0489 78.4739 71.9711 78.4739 64.8933C78.4739 58.7483 75.432 48.4333 55.0746 48.4333Z" fill="black"/>
</svg>
